PathFileType	4	(X/Y/Z)	/Users/itak/Documents/Research/Walk-IL/dataset/trc/00146_00007.trc
DataRate	CameraRate	NumFrames	NumMarkers	Units	OrigDataRate	OrigDataStartFrame	OrigNumFrames
100.000000	100.000000	4	53	mm	100.000000	68	550
Frame#	Time	RPSI			LPSI			L3			STRN			T10			C7			CLAV			RBAK			LBAK			LSHO			LUPA			LAEL			LAOL			LWTS			LWPS			LFRA			LIFD			LHPS			LHTS			RSHO			RUPA			RAEL			RAOL			RWTS			RWPS			RFRA			RIFD			RHTS			RHPS			RBHD			LFHD			RFHD			LBHD			LHIP			RHIP			RASI			LASI			LKNE			LTHI			LANK			LTIP			LTOE			LMT1			LMT5			LHEE			RKNE			RTHI			RANK			RTIP			RTOE			RMT1			RMT5			RHEE			
		X1	Y1	Z1	X2	Y2	Z2	X3	Y3	Z3	X4	Y4	Z4	X5	Y5	Z5	X6	Y6	Z6	X7	Y7	Z7	X8	Y8	Z8	X9	Y9	Z9	X10	Y10	Z10	X11	Y11	Z11	X12	Y12	Z12	X13	Y13	Z13	X14	Y14	Z14	X15	Y15	Z15	X16	Y16	Z16	X17	Y17	Z17	X18	Y18	Z18	X19	Y19	Z19	X20	Y20	Z20	X21	Y21	Z21	X22	Y22	Z22	X23	Y23	Z23	X24	Y24	Z24	X25	Y25	Z25	X26	Y26	Z26	X27	Y27	Z27	X28	Y28	Z28	X29	Y29	Z29	X30	Y30	Z30	X31	Y31	Z31	X32	Y32	Z32	X33	Y33	Z33	X34	Y34	Z34	X35	Y35	Z35	X36	Y36	Z36	X37	Y37	Z37	X38	Y38	Z38	X39	Y39	Z39	X40	Y40	Z40	X41	Y41	Z41	X42	Y42	Z42	X43	Y43	Z43	X44	Y44	Z44	X45	Y45	Z45	X46	Y46	Z46	X47	Y47	Z47	X48	Y48	Z48	X49	Y49	Z49	X50	Y50	Z50	X51	Y51	Z51	X52	Y52	Z52	X53	Y53	Z53	

69	0.68	-865.5772094726562	1130.464111328125	1221.330200195312	-864.2573852539062	1130.622436523438	1087.159790039062	-871.8143920898438	1160.07958984375	1151.125854492188	-665.6665649414062	1362.48876953125	1150.65478515625	-918.31982421875	1306.792724609375	1148.078735351562	-893.9174194335938	1599.4052734375	1134.948120117188	-708.1405029296875	1495.3583984375	1145.951782226562	-943.8460693359375	1413.619384765625	1221.616455078125	-897.7176513671875	1578.566162109375	1032.307006835938	-809.513916015625	1565.50341796875	965.2484130859375	-823.40087890625	1432.067993164062	896.1575927734375	-793.8118286132812	1211.807495117188	881.9804077148438	-866.1691284179688	1199.665161132812	931.951171875	-689.73583984375	959.4080810546875	949.0059814453125	-765.2330322265625	929.5137939453125	911.34033203125	-771.3657836914062	1096.016723632812	884.74365234375	-671.1759643554688	767.64697265625	976.3129272460938	-734.4419555664062	855.8348999023438	918.4324340820312	-670.89404296875	871.400146484375	943.7208251953125	-839.5510864257812	1580.616455078125	1317.504028320312	-854.7236938476562	1506.473022460938	1381.704223632812	-847.2969970703125	1210.7294921875	1397.71630859375	-856.2649536132812	1211.067626953125	1302.421997070312	-689.3184204101562	975.4660034179688	1377.774780273438	-762.12451171875	954.919189453125	1410.503051757812	-818.5767822265625	1138.140625	1412.517822265625	-649.8798217773438	783.9874267578125	1359.52294921875	-652.5188598632812	870.281494140625	1382.088256835938	-718.443603515625	856.6707763671875	1411.22998046875	-850.8289794921875	1775.754638671875	1215.686157226562	-703.78759765625	1839.845458984375	1064.738647460938	-691.2015380859375	1850.977661132812	1193.761962890625	-871.278564453125	1768.565185546875	1082.503295898438	-773.0195922851562	1037.852172851562	982.3433837890625	-736.865478515625	1035.002075195312	1339.621215820312	-657.4193725585938	1107.272583007812	1286.6513671875	-662.75927734375	1103.880859375	1019.646911621094	-765.9780883789062	538.9075317382812	1003.700256347656	-781.8807373046875	685.71630859375	979.36181640625	-888.9729614257812	39.17292022705078	1009.302856445312	-873.7354125976562	295.2977905273438	977.797607421875	-656.3684692382812	40.93653869628906	1065.193359375	-738.2236938476562	43.29749298095703	1099.127563476562	-761.7059326171875	39.67924118041992	984.278564453125	-959.3396606445312	42.0670051574707	1070.236206054688	-758.9047241210938	543.9288940429688	1319.3544921875	-720.56103515625	822.7263793945312	1337.843505859375	-883.3616943359375	35.24798965454102	1324.2236328125	-791.04931640625	412.3771667480469	1334.228271484375	-652.548583984375	47.29463958740234	1260.276000976562	-715.6663208007812	38.24879837036133	1221.999389648438	-747.8131713867188	42.15716171264648	1340.8642578125	-943.1354370117188	36.21394729614258	1279.55419921875	
70	0.6900000000000001	-865.2857055664062	1130.409912109375	1221.643432617188	-864.0167846679688	1130.595825195312	1087.43310546875	-871.563232421875	1160.074096679688	1151.436767578125	-665.4531860351562	1362.434204101562	1150.976684570312	-918.0814819335938	1306.719604492188	1148.384765625	-893.6792602539062	1599.381103515625	1135.323852539062	-707.90185546875	1495.329711914062	1146.285278320312	-943.6261596679688	1413.615844726562	1221.985473632812	-897.5386962890625	1578.538696289062	1032.669555664062	-809.3181762695312	1565.5205078125	965.6151733398438	-823.2085571289062	1432.076538085938	896.5087280273438	-793.63671875	1211.807495117188	882.2330322265625	-865.9343872070312	1199.680053710938	932.3305053710938	-689.5878295898438	959.3221435546875	948.9325561523438	-765.0785522460938	929.491943359375	911.4365844726562	-771.2522583007812	1096.019165039062	884.90771484375	-671.065185546875	767.5599975585938	976.1658935546875	-734.39892578125	855.798828125	918.4434814453125	-670.7452392578125	871.331787109375	943.5886840820312	-839.3226318359375	1580.578491210938	1317.874877929688	-854.48828125	1506.445922851562	1382.096435546875	-847.0938720703125	1210.704223632812	1398.063354492188	-856.0786743164062	1211.015258789062	1302.759033203125	-688.8856201171875	975.5470581054688	1378.046264648438	-761.646484375	954.9249267578125	1410.783569335938	-818.3367309570312	1138.122924804688	1412.866333007812	-649.2767333984375	784.1209716796875	1359.765625	-651.943603515625	870.4365234375	1382.316040039062	-717.89599609375	856.7523803710938	1411.48681640625	-850.45458984375	1775.841674804688	1215.990478515625	-703.5272216796875	1839.707885742188	1064.894287109375	-690.72412109375	1850.897827148438	1193.899291992188	-871.02001953125	1768.529418945312	1082.848022460938	-772.824951171875	1037.8701171875	982.6237182617188	-736.509033203125	1034.963500976562	1339.878295898438	-657.1415405273438	1107.233520507812	1286.901611328125	-662.5254516601562	1103.857543945312	1019.90185546875	-765.8331298828125	538.9170532226562	1003.817077636719	-781.71923828125	685.7285766601562	979.519287109375	-888.974365234375	39.18352508544922	1009.304565429688	-873.6672973632812	295.3338012695312	977.8784790039062	-656.3654174804688	40.93757247924805	1065.191772460938	-738.2239990234375	43.29501724243164	1099.122802734375	-761.6852416992188	39.6933479309082	984.27001953125	-959.3349609375	42.06848526000977	1070.244018554688	-758.6441040039062	543.8578491210938	1319.443359375	-720.6712036132812	822.6533203125	1338.23193359375	-883.3602294921875	35.2449836730957	1324.2275390625	-790.8290405273438	412.3132629394531	1334.286254882812	-652.5545043945312	47.30104827880859	1260.275634765625	-715.6725463867188	38.24605178833008	1222	-747.8114013671875	42.15793991088867	1340.867431640625	-943.1484985351562	36.20850372314453	1279.56103515625	
71	0.7000000000000001	-865.0055541992188	1130.358154296875	1221.966796875	-863.779541015625	1130.566162109375	1087.7021484375	-871.302490234375	1160.069458007812	1151.772827148438	-665.2149047851562	1362.374145507812	1151.324951171875	-917.8441162109375	1306.64501953125	1148.693969726562	-893.4312744140625	1599.36328125	1135.720947265625	-707.660400390625	1495.299072265625	1146.628540039062	-943.3989868164062	1413.615478515625	1222.361206054688	-897.336669921875	1578.513549804688	1033.0615234375	-809.1014404296875	1565.533813476562	965.9942626953125	-823.0234985351562	1432.0849609375	896.8624267578125	-793.5233154296875	1211.801513671875	882.4698486328125	-865.7391357421875	1199.69677734375	932.7301635742188	-689.452392578125	959.238525390625	948.7809448242188	-764.9593505859375	929.4684448242188	911.5180053710938	-771.1885375976562	1096.021118164062	885.0547485351562	-670.9299926757812	767.47705078125	975.9263916015625	-734.405029296875	855.76025390625	918.4241943359375	-670.6148681640625	871.2597045898438	943.3617553710938	-839.08984375	1580.54248046875	1318.25830078125	-854.2496948242188	1506.41796875	1382.495849609375	-846.9159545898438	1210.668823242188	1398.422607421875	-855.924072265625	1210.96630859375	1303.1044921875	-688.4780883789062	975.6196899414062	1378.348266601562	-761.2260131835938	954.9249877929688	1411.086181640625	-818.133056640625	1138.110961914062	1413.239013671875	-648.707275390625	784.2510986328125	1360.033447265625	-651.4102783203125	870.5782470703125	1382.575561523438	-717.3796997070312	856.8248901367188	1411.76904296875	-850.0845336914062	1775.926635742188	1216.304443359375	-703.2969360351562	1839.585205078125	1065.06591796875	-690.263916015625	1850.821044921875	1194.05322265625	-870.7550659179688	1768.487182617188	1083.193237304688	-772.6261596679688	1037.8857421875	982.9152221679688	-736.1600341796875	1034.931030273438	1340.148315429688	-656.8572998046875	1107.191040039062	1287.165649414062	-662.2874145507812	1103.831909179688	1020.168090820312	-765.677978515625	538.927490234375	1003.936706542969	-781.5501708984375	685.739501953125	979.6964721679688	-888.9754638671875	39.19158935546875	1009.302673339844	-873.5978393554688	295.3671264648438	977.9537963867188	-656.3645629882812	40.93922805786133	1065.190307617188	-738.2245483398438	43.29263305664062	1099.116455078125	-761.6709594726562	39.70243835449219	984.2630004882812	-959.332275390625	42.07033920288086	1070.248657226562	-758.3853759765625	543.7928466796875	1319.533813476562	-720.6522216796875	822.5928344726562	1338.581665039062	-883.35791015625	35.23891067504883	1324.23193359375	-790.5966796875	412.2438659667969	1334.350463867188	-652.56298828125	47.30730438232422	1260.276000976562	-715.6785888671875	38.24324035644531	1222.000244140625	-747.8091430664062	42.15884780883789	1340.872192382812	-943.16357421875	36.20503234863281	1279.565307617188	
72	0.71	-864.7394409179688	1130.311645507812	1222.29541015625	-863.5390014648438	1130.533203125	1087.974975585938	-871.0407104492188	1160.067260742188	1152.13427734375	-664.9572143554688	1362.309448242188	1151.6923828125	-917.5980834960938	1306.568725585938	1149.018798828125	-893.1770629882812	1599.348754882812	1136.136840820312	-707.4146118164062	1495.265747070312	1146.980346679688	-943.160400390625	1413.614990234375	1222.743286132812	-897.1102294921875	1578.490600585938	1033.484497070312	-808.867919921875	1565.540893554688	966.38427734375	-822.8468627929688	1432.092529296875	897.2200317382812	-793.4691162109375	1211.789306640625	882.6979370117188	-865.574951171875	1199.708984375	933.1574096679688	-689.322998046875	959.16259765625	948.5755004882812	-764.8715209960938	929.4425048828125	911.5972290039062	-771.16748046875	1096.022338867188	885.1953735351562	-670.7609252929688	767.4010009765625	975.6128540039062	-734.4453125	855.720947265625	918.3864135742188	-670.49462890625	871.1900634765625	943.0587158203125	-838.8532104492188	1580.5068359375	1318.654296875	-854.0027465820312	1506.38671875	1382.89990234375	-846.7518920898438	1210.622192382812	1398.799072265625	-855.7896728515625	1210.921142578125	1303.46728515625	-688.0989990234375	975.68212890625	1378.680541992188	-760.8682861328125	954.9171142578125	1411.40771484375	-817.9630737304688	1138.099853515625	1413.639770507812	-648.1829833984375	784.3724975585938	1360.324096679688	-650.9338989257812	870.7020263671875	1382.86376953125	-716.9067993164062	856.8817138671875	1412.076904296875	-849.7161865234375	1776.009643554688	1216.6328125	-703.0875854492188	1839.475219726562	1065.25927734375	-689.8290405273438	1850.748413085938	1194.223388671875	-870.4833374023438	1768.439208984375	1083.53955078125	-772.4254760742188	1037.900024414062	983.2197265625	-735.8262329101562	1034.902709960938	1340.431762695312	-656.5601196289062	1107.146240234375	1287.440063476562	-662.0474853515625	1103.805053710938	1020.447265625	-765.51025390625	538.9375	1004.062622070312	-781.375	685.7462768554688	979.894287109375	-888.976318359375	39.19718933105469	1009.298095703125	-873.5265502929688	295.3974304199219	978.0235595703125	-656.3641357421875	40.941162109375	1065.18896484375	-738.2254028320312	43.29066467285156	1099.109130859375	-761.662841796875	39.70676803588867	984.2566528320312	-959.3311157226562	42.07277679443359	1070.250732421875	-758.1261596679688	543.7345581054688	1319.630981445312	-720.4607543945312	822.5451049804688	1338.875854492188	-883.3536987304688	35.23108673095703	1324.239013671875	-790.3519287109375	412.1699829101562	1334.421997070312	-652.5740356445312	47.31386566162109	1260.277465820312	-715.6834716796875	38.24088668823242	1222.000244140625	-747.80712890625	42.15960693359375	1340.87890625	-943.1788330078125	36.20224761962891	1279.566528320312	
